Patient4_TMGait_0pt7_02_left_25_GRF.mot
version=1
nRows=64
nColumns=19
inDegrees=no
endheader
time	F1x	F1y	F1z	M1x	M1y	M1z	F2x	F2y	F2z	M2x	M2y	M2z	EC1x	EC1y	EC1z	EC2x	EC2y	EC2z
28.44	4.4633	6.4402	12.4004	-5.5468	-6.1302	3.3405	-58.0206	821.2263	-70.2824	317.3297	115.2926	943.8976	-0.0592	0.0182	-0.0073	-0.0462	0.0165	0.9585
28.4516	3.2234	5.1207	8.5453	-4.0431	-4.2743	3.1558	-53.4376	820.0915	-76.9418	317.3536	117.1657	936.8232	-0.0592	0.0182	-0.0073	-0.0462	0.0165	0.9585
28.4631	2.1152	4.0819	5.2298	-2.7756	-2.6836	3.1118	-48.7481	815.6997	-82.1579	316.1185	117.6992	925.8275	-0.0592	0.0182	-0.0073	-0.0462	0.0165	0.9585
28.4747	1.2082	3.3743	2.6722	-1.8243	-1.4615	3.2086	-44.1817	807.9277	-85.5108	313.5205	116.7494	911.0749	-0.0592	0.0182	-0.0073	-0.0462	0.0165	0.9585
28.4863	0.55024	2.9605	0.88066	-1.1827	-0.60103	3.3799	-39.8581	797.154	-87.0338	309.6793	114.4637	893.1754	-0.0592	0.0182	-0.0073	-0.0462	0.0165	0.9585
28.4979	0.08366	2.7986	-0.24924	-0.80444	-0.060844	3.6104	-35.8447	783.9773	-87.0478	304.8272	111.1815	872.8918	-0.0592	0.0182	-0.0073	-0.0462	0.0165	0.9585
28.5094	-0.20424	2.7745	-0.86542	-0.61184	0.23098	3.7983	-32.1682	769.1455	-85.9636	299.2622	107.2773	851.0742	-0.0592	0.0182	-0.0073	-0.0462	0.0165	0.9585
28.521	-0.38652	2.7825	-1.121	-0.52824	0.33977	3.8838	-28.8132	753.3243	-84.2081	293.2594	103.1045	828.4405	-0.0592	0.0182	-0.0073	-0.0462	0.0165	0.9585
28.5326	-0.48169	2.6833	-1.143	-0.4752	0.33092	3.7429	-25.763	737.0538	-82.1008	287.0503	98.9052	805.5552	-0.0592	0.0182	-0.0073	-0.0462	0.0165	0.9585
28.5441	-0.54813	2.3399	-1.0411	-0.38068	0.25926	3.2839	-22.922	720.7683	-79.8829	280.8216	94.8286	782.8186	-0.0592	0.0182	-0.0073	-0.0462	0.0165	0.9585
28.5557	-0.58581	1.6011	-0.882	-0.17499	0.16137	2.3454	-20.1964	704.8302	-77.6604	274.7372	90.8947	760.5439	-0.0592	0.0182	-0.0073	-0.0462	0.0165	0.9585
28.5673	-0.62094	0.35255	-0.72556	0.19598	0.068818	0.80526	-17.3984	689.6573	-75.4846	268.9795	87.0551	739.0758	-0.0592	0.0182	-0.0073	-0.0462	0.0165	0.9585
28.5789	-0.62316	-1.5029	-0.5955	0.76947	0.0051457	-1.484	-14.3689	675.8325	-73.3492	263.7887	83.2214	718.9298	-0.0592	0.0182	-0.0073	-0.0462	0.0165	0.9585
28.5904	-0.58761	-3.9404	-0.52788	1.5405	0.0079382	-4.5058	-10.9005	664.0989	-71.2445	259.4645	79.2921	700.7709	-0.0592	0.0182	-0.0073	-0.0462	0.0165	0.9585
28.602	-0.45471	-6.8129	-0.53259	2.4575	0.11268	-8.1023	-6.7954	655.3998	-69.1965	256.3679	75.2071	685.49	-0.0592	0.0182	-0.0073	-0.0462	0.0165	0.9585
28.6136	-0.18531	-9.6825	-0.63866	3.374	0.37092	-11.727	-1.8778	650.6638	-67.2528	254.8518	70.9448	673.9532	-0.0592	0.0182	-0.0073	-0.0462	0.0165	0.9585
28.6251	0.29808	-11.7846	-0.84818	4.0356	0.82062	-14.4429	3.9227	650.6646	-65.5183	255.1932	66.5733	666.9256	-0.0592	0.0182	-0.0073	-0.0462	0.0165	0.9585
28.6367	1.0373	-11.8753	-1.1783	4.031	1.4929	-14.6856	10.6132	655.7433	-64.1041	257.4946	62.1949	664.758	-0.0592	0.0182	-0.0073	-0.0462	0.0165	0.9585
28.6483	2.0883	-8.1979	-1.5941	2.78	2.3663	-10.2831	18.0217	665.5855	-63.1434	261.5951	57.9871	667.2069	-0.0592	0.0182	-0.0073	-0.0462	0.0165	0.9585
28.6599	3.4321	1.5431	-2.0577	-0.46747	3.3802	1.6343	25.9015	679.0656	-62.7361	267.0152	54.1214	673.2778	-0.0592	0.0182	-0.0073	-0.0462	0.0165	0.9585
28.6714	4.9853	19.9955	-2.4519	-6.5733	4.3628	24.3412	33.8347	694.2469	-62.9172	272.9624	50.7658	681.2613	-0.0592	0.0182	-0.0073	-0.0462	0.0165	0.9585
28.683	6.4888	49.8127	-2.6245	-16.3948	5.0262	61.1614	41.3777	708.5721	-63.5832	278.4196	47.9771	688.8636	-0.0592	0.0182	-0.0073	-0.0462	0.0165	0.9585
28.6946	7.5272	92.9041	-2.3211	-30.5424	4.9103	114.4939	48.0876	719.1997	-64.4729	282.2811	45.6745	693.5495	-0.0592	0.0182	-0.0073	-0.0462	0.0165	0.9585
28.7061	7.3986	149.3828	-1.2183	-49.0291	3.3706	184.5572	53.623	723.2553	-65.1752	283.4678	43.6133	692.7011	-0.0592	0.0182	-0.0073	-0.0462	0.0165	0.9585
28.7177	5.0661	216.1014	1.0977	-70.7987	-0.4336	267.5094	57.769	718.2735	-65.2069	281.0791	41.444	684.0573	-0.0592	0.0182	-0.0073	-0.0462	0.0165	0.9585
28.7293	-0.82411	285.9131	4.9731	-93.4795	-7.3266	354.5371	60.4739	702.3662	-64.1247	274.4532	38.8055	665.8224	-0.0592	0.0182	-0.0073	-0.0462	0.0165	0.9585
28.7409	-9.8047	349.2516	10.5806	-113.9608	-17.2321	433.6174	61.7078	674.3935	-61.6765	263.2065	35.5077	636.8915	-0.0592	0.0182	-0.0073	-0.0462	0.0165	0.9585
28.7524	-19.661	400.2487	17.2834	-130.3742	-28.6364	497.0764	61.4795	634.1283	-57.9055	247.2807	31.6242	596.976	-0.0592	0.0182	-0.0073	-0.0462	0.0165	0.9585
28.764	-29.4164	440.2523	24.4474	-143.1597	-40.4088	546.2762	59.7058	582.4786	-53.0944	227.0198	27.456	546.8955	-0.0592	0.0182	-0.0073	-0.0462	0.0165	0.9585
28.7756	-38.5372	474.7267	31.352	-154.1112	-51.5657	587.7919	56.3998	521.3701	-47.6886	203.1405	23.4121	488.4049	-0.0592	0.0182	-0.0073	-0.0462	0.0165	0.9585
28.7871	-46.6539	508.8128	37.6115	-164.9159	-61.5358	627.9716	51.5565	453.4597	-42.0672	176.6429	19.8291	423.9767	-0.0592	0.0182	-0.0073	-0.0462	0.0165	0.9585
28.7987	-53.3932	545.6223	43.0879	-176.5628	-70.0564	670.6765	45.2602	381.8653	-36.4572	148.7244	16.8804	356.4788	-0.0592	0.0182	-0.0073	-0.0462	0.0165	0.9585
28.8103	-58.4556	585.4559	47.8648	-189.1047	-77.1593	716.3429	37.7015	310.0424	-30.9646	120.7222	14.5836	289.1103	-0.0592	0.0182	-0.0073	-0.0462	0.0165	0.9585
28.8219	-61.7727	626.9593	52.4565	-202.0115	-83.4158	763.3704	29.3484	241.4889	-25.709	93.9955	12.8642	225.0662	-0.0592	0.0182	-0.0073	-0.0462	0.0165	0.9585
28.8334	-63.4165	668.0427	57.3068	-214.5087	-89.4115	809.3905	20.9081	179.3523	-20.7778	69.7698	11.5129	167.2074	-0.0592	0.0182	-0.0073	-0.0462	0.0165	0.9585
28.845	-63.685	706.4106	62.9055	-225.7735	-95.804	851.8448	13.2714	125.929	-16.2905	48.942	10.2841	117.5592	-0.0592	0.0182	-0.0073	-0.0462	0.0165	0.9585
28.8566	-62.9762	739.7682	69.2233	-235.0509	-102.6962	888.1199	7.0975	82.3933	-12.2899	31.9751	8.9458	77.129	-0.0592	0.0182	-0.0073	-0.0462	0.0165	0.9585
28.8681	-61.5683	766.1889	75.9055	-241.7757	-109.7406	916.1077	2.6731	48.8687	-8.7936	18.9235	7.3982	45.9758	-0.0592	0.0182	-0.0073	-0.0462	0.0165	0.9585
28.8797	-59.5118	784.6946	82.1681	-245.7449	-116.0506	934.6767	-0.12322	24.7254	-5.8248	9.5379	5.7071	23.5211	-0.0592	0.0182	-0.0073	-0.0462	0.0165	0.9585
28.8913	-56.7911	794.9969	87.3105	-247.0006	-120.795	943.5444	-1.6092	8.7612	-3.413	3.3467	4.0235	8.6607	-0.0592	0.0182	-0.0073	-0.0462	0.0165	0.9585
28.9029	-53.3907	797.2045	90.8577	-245.7072	-123.4174	942.8693	-2.1709	-0.56663	-1.6323	-0.26124	2.5658	-0.02453	-0.0592	0.0182	-0.0073	-0.0462	0.0165	0.9585
28.9144	-49.4868	791.7663	92.6485	-242.113	-123.7832	933.2169	-2.1589	-5.0265	-0.47312	-1.9754	1.4601	-4.1823	-0.0592	0.0182	-0.0073	-0.0462	0.0165	0.9585
28.926	-45.192	779.5575	92.7442	-236.5772	-122.0191	915.6604	-1.8447	-6.2325	0.21048	-2.4271	0.67938	-5.2951	-0.0592	0.0182	-0.0073	-0.0462	0.0165	0.9585
28.9376	-40.7036	762.0222	91.3117	-229.607	-118.4096	891.9145	-1.406	-5.5241	0.52622	-2.1393	0.19629	-4.6121	-0.0592	0.0182	-0.0073	-0.0462	0.0165	0.9585
28.9491	-36.22	740.97	88.7031	-221.7999	-113.4399	864.0873	-0.97747	-3.8863	0.61339	-1.4943	-0.06774	-3.0471	-0.0592	0.0182	-0.0073	-0.0462	0.0165	0.9585
28.9607	-31.9192	718.5161	85.2778	-213.825	-107.6037	834.626	-0.60502	-1.9756	0.56182	-0.74884	-0.17401	-1.2216	-0.0592	0.0182	-0.0073	-0.0462	0.0165	0.9585
28.9723	-27.9272	696.7822	81.4759	-206.3362	-101.4528	805.9282	-0.33817	-0.19181	0.44718	-0.057253	-0.17738	0.4972	-0.0592	0.0182	-0.0073	-0.0462	0.0165	0.9585
28.9839	-24.3356	677.7157	77.6228	-199.926	-95.3963	780.1342	-0.15347	1.2756	0.32056	0.50826	-0.131	1.9201	-0.0592	0.0182	-0.0073	-0.0462	0.0165	0.9585
28.9954	-21.0775	662.8734	73.9763	-195.0609	-89.714	758.9088	-0.045611	2.3707	0.19716	0.92702	-0.053003	2.9962	-0.0592	0.0182	-0.0073	-0.0462	0.0165	0.9585
29.007	-18.0525	653.2568	70.6599	-192.0407	-84.5138	743.2538	0.012076	3.104	0.10208	1.2089	0.021179	3.7179	-0.0592	0.0182	-0.0073	-0.0462	0.0165	0.9585
29.0186	-15.0501	649.3632	67.7041	-191.0079	-79.7671	733.5718	0.033762	3.547	0.012275	1.3812	0.10074	4.152	-0.0592	0.0182	-0.0073	-0.0462	0.0165	0.9585
29.0301	-11.8179	651.1699	65.1272	-191.9452	-75.4048	729.7179	0.03519	3.7665	-0.046916	1.4722	0.15163	4.3541	-0.0592	0.0182	-0.0073	-0.0462	0.0165	0.9585
29.0417	-8.1276	658.2314	62.8838	-194.707	-71.2948	731.0687	0.018216	3.8463	-0.094782	1.5113	0.19121	4.4034	-0.0592	0.0182	-0.0073	-0.0462	0.0165	0.9585
29.0533	-3.7639	669.7578	61.009	-199.0337	-67.3873	736.6958	-0.0045028	3.846	-0.12211	1.523	0.21272	4.3604	-0.0592	0.0182	-0.0073	-0.0462	0.0165	0.9585
29.0649	1.3779	684.7702	59.461	-204.604	-63.5959	745.5126	-0.041048	3.8061	-0.14684	1.5232	0.24004	4.2872	-0.0592	0.0182	-0.0073	-0.0462	0.0165	0.9585
29.0764	7.2136	702.1998	58.2895	-211.0507	-59.9789	756.4221	-0.08415	3.7684	-0.1638	1.526	0.26861	4.2272	-0.0592	0.0182	-0.0073	-0.0462	0.0165	0.9585
29.088	13.5124	720.9011	57.4864	-217.9708	-56.5854	768.3529	-0.14147	3.7417	-0.17938	1.5315	0.30489	4.1916	-0.0592	0.0182	-0.0073	-0.0462	0.0165	0.9585
29.0996	19.9221	739.6525	57.1211	-224.9224	-53.5829	780.2221	-0.20691	3.7158	-0.19549	1.5337	0.34535	4.1634	-0.0592	0.0182	-0.0073	-0.0462	0.0165	0.9585
29.1111	26.0169	757.1666	57.2343	-231.4402	-51.1358	790.9162	-0.28339	3.6565	-0.2173	1.5165	0.39767	4.1036	-0.0592	0.0182	-0.0073	-0.0462	0.0165	0.9585
29.1227	31.4483	772.2217	57.8283	-237.0867	-49.3569	799.3999	-0.37522	3.4845	-0.24803	1.4489	0.46955	3.917	-0.0592	0.0182	-0.0073	-0.0462	0.0165	0.9585
29.1343	35.9131	783.7903	58.8816	-241.5025	-48.319	804.7982	-0.46339	3.1164	-0.28543	1.294	0.55548	3.494	-0.0592	0.0182	-0.0073	-0.0462	0.0165	0.9585
29.1459	39.3211	791.2216	60.2693	-244.4683	-47.9409	806.5434	-0.54656	2.4343	-0.32678	1.0035	0.64818	2.682	-0.0592	0.0182	-0.0073	-0.0462	0.0165	0.9585
29.1574	41.7183	794.3892	61.8838	-245.9423	-48.1081	804.5554	-0.60465	1.3143	-0.36259	0.52752	0.72611	1.3153	-0.0592	0.0182	-0.0073	-0.0462	0.0165	0.9585
29.169	43.2854	793.6121	63.527	-246.0408	-48.5827	799.1118	-0.61762	-0.34032	-0.39138	-0.17162	0.76727	-0.72744	-0.0592	0.0182	-0.0073	-0.0462	0.0165	0.9585
